<?xml version="1.0" standalone="no"?>
<!DOCTYPE svg PUBLIC "-//W3C//DTD SVG 20010904//EN"
 "http://www.w3.org/TR/2001/REC-SVG-20010904/DTD/svg10.dtd">
<svg version="1.0" xmlns="http://www.w3.org/2000/svg"
 width="50.000000pt" height="50.000000pt" viewBox="0 0 50.000000 50.000000"
 preserveAspectRatio="xMidYMid meet">

<g transform="translate(0.000000,50.000000) scale(0.100000,-0.100000)"
fill="#000000" stroke="none">
<path d="M62 438 c-9 -9 -6 -18 14 -39 l27 -28 -30 -38 c-50 -64 -56 -79 -39
-111 29 -55 96 -111 154 -128 49 -15 60 -15 116 -1 l61 15 31 -29 c25 -24 33
-27 42 -16 16 19 -358 393 -376 375z m98 -123 c13 -12 16 -27 13 -58 -4 -36
-1 -46 21 -66 21 -19 32 -23 65 -18 27 3 44 1 51 -9 20 -23 1 -34 -57 -34 -65
0 -124 29 -160 79 -29 38 -28 38 2 84 28 41 40 45 65 22z m90 -103 c-15 -5
-40 17 -40 36 0 12 6 10 26 -9 14 -13 20 -25 14 -27z"/>
<path d="M213 413 c-50 -10 -14 -43 46 -43 53 0 115 -33 150 -81 24 -32 24
-32 6 -66 -14 -25 -16 -36 -7 -45 14 -14 37 3 58 44 13 24 13 32 0 56 -27 53
-95 111 -149 127 -51 15 -63 16 -104 8z"/>
<path d="M290 295 c19 -20 36 -31 38 -25 5 15 -38 60 -57 60 -10 0 -3 -12 19
-35z"/>
</g>
</svg>
