<svg width="193" height="31" viewBox="0 0 193 31" fill="none" xmlns="http://www.w3.org/2000/svg">
<path d="M0.848882 23.8839V0.21594H5.42761V23.8839H0.848882ZM4.21559 23.8839V19.8102H16.2684V23.8839H4.21559ZM26.3002 24.2206C24.6617 24.2206 23.1803 23.8502 21.8561 23.1096C20.5543 22.3464 19.5106 21.3252 18.7251 20.0459C17.9619 18.7441 17.5804 17.2964 17.5804 15.7028C17.5804 14.1092 17.9619 12.684 18.7251 11.4271C19.4882 10.1477 20.5319 9.13772 21.8561 8.39705C23.1803 7.63392 24.6505 7.25236 26.2665 7.25236C27.9274 7.25236 29.4088 7.63392 30.7105 8.39705C32.0348 9.13772 33.0785 10.1477 33.8416 11.4271C34.6047 12.684 34.9863 14.1092 34.9863 15.7028C34.9863 17.2964 34.6047 18.7441 33.8416 20.0459C33.0785 21.3252 32.0348 22.3464 30.7105 23.1096C29.4088 23.8502 27.9386 24.2206 26.3002 24.2206ZM26.2665 20.1132C27.0969 20.1132 27.8264 19.9336 28.4549 19.5745C29.1057 19.193 29.5995 18.6767 29.9362 18.0258C30.2953 17.3525 30.4749 16.5894 30.4749 15.7365C30.4749 14.8836 30.2953 14.1317 29.9362 13.4808C29.5771 12.8299 29.0833 12.3249 28.4549 11.9658C27.8264 11.5842 27.0969 11.3934 26.2665 11.3934C25.4585 11.3934 24.7402 11.5842 24.1118 11.9658C23.4833 12.3249 22.9896 12.8299 22.6304 13.4808C22.2713 14.1317 22.0918 14.8836 22.0918 15.7365C22.0918 16.5894 22.2713 17.3525 22.6304 18.0258C22.9896 18.6767 23.4833 19.193 24.1118 19.5745C24.7402 19.9336 25.4585 20.1132 26.2665 20.1132ZM37.8256 23.8839V7.6227H42.236V23.8839H37.8256ZM42.236 14.8948L40.519 13.7501C40.721 11.7525 41.3045 10.1814 42.2697 9.03672C43.2348 7.86959 44.6264 7.28603 46.4444 7.28603C47.23 7.28603 47.937 7.4207 48.5654 7.69004C49.1939 7.93693 49.7662 8.35216 50.2824 8.93572L47.5217 12.1004C47.2748 11.8311 46.9718 11.6291 46.6127 11.4944C46.2761 11.3597 45.8833 11.2924 45.4344 11.2924C44.4917 11.2924 43.7174 11.5954 43.1113 12.2014C42.5278 12.785 42.236 13.6828 42.236 14.8948ZM59.1485 24.2206C57.4427 24.2206 55.9276 23.8615 54.6034 23.1432C53.2792 22.4026 52.2243 21.3925 51.4387 20.1132C50.6756 18.8338 50.294 17.3749 50.294 15.7365C50.294 14.1205 50.6643 12.684 51.405 11.4271C52.1681 10.1477 53.2006 9.13772 54.5024 8.39705C55.8042 7.63392 57.2519 7.25236 58.8455 7.25236C60.4166 7.25236 61.7969 7.61148 62.9865 8.32971C64.1985 9.0255 65.1412 9.99062 65.8145 11.2251C66.5103 12.4371 66.8582 13.8174 66.8582 15.3661C66.8582 15.6579 66.8358 15.9609 66.7909 16.2751C66.7684 16.5669 66.7123 16.9036 66.6226 17.2852L52.9537 17.3188V14.0195L64.5689 13.9858L62.7845 15.3661C62.7396 14.401 62.5601 13.593 62.2458 12.9421C61.9541 12.2912 61.5164 11.7974 60.9328 11.4608C60.3717 11.1016 59.6759 10.9221 58.8455 10.9221C57.9701 10.9221 57.207 11.1241 56.5561 11.5281C55.9052 11.9096 55.4002 12.4595 55.0411 13.1778C54.7044 13.8736 54.5361 14.704 54.5361 15.6691C54.5361 16.6567 54.7156 17.5208 55.0747 18.2615C55.4563 18.9797 55.995 19.5409 56.6908 19.9449C57.3865 20.3264 58.1946 20.5172 59.1148 20.5172C59.9452 20.5172 60.6971 20.3825 61.3705 20.1132C62.0438 19.8214 62.6274 19.395 63.1212 18.8338L65.7135 21.4262C64.928 22.3464 63.9629 23.0422 62.8182 23.5136C61.6959 23.9849 60.4727 24.2206 59.1485 24.2206ZM69.5858 23.8839V7.6227H73.9962V23.8839H69.5858ZM80.1909 23.8839V14.2888C80.1909 13.3461 79.8879 12.6167 79.2819 12.1004C78.6983 11.5618 77.9689 11.2924 77.0936 11.2924C76.51 11.2924 75.9825 11.4159 75.5112 11.6628C75.0399 11.8872 74.6695 12.2239 74.4002 12.6728C74.1308 13.1217 73.9962 13.6603 73.9962 14.2888L72.2792 13.4471C72.2792 12.1902 72.5485 11.1016 73.0872 10.1814C73.6483 9.26117 74.4002 8.55416 75.3429 8.06037C76.2855 7.54414 77.3517 7.28603 78.5412 7.28603C79.6635 7.28603 80.6847 7.54414 81.6049 8.06037C82.5252 8.55416 83.2546 9.26117 83.7933 10.1814C84.332 11.0792 84.6013 12.1678 84.6013 13.4471V23.8839H80.1909ZM90.7961 23.8839V14.2888C90.7961 13.3461 90.4931 12.6167 89.887 12.1004C89.3035 11.5618 88.574 11.2924 87.6987 11.2924C87.1376 11.2924 86.6101 11.4159 86.1163 11.6628C85.645 11.8872 85.2747 12.2239 85.0053 12.6728C84.736 13.1217 84.6013 13.6603 84.6013 14.2888L82.0763 13.6828C82.1661 12.381 82.514 11.2587 83.12 10.3161C83.726 9.35095 84.5228 8.61027 85.5103 8.09404C86.4979 7.55537 87.5977 7.28603 88.8097 7.28603C90.0217 7.28603 91.1103 7.54414 92.0754 8.06037C93.0405 8.55416 93.8037 9.27239 94.3648 10.2151C94.9259 11.1577 95.2065 12.28 95.2065 13.5818V23.8839H90.7961ZM105.828 23.8839V0.21594H110.407V23.8839H105.828ZM123.816 24.2206C122.649 24.2206 121.594 23.9849 120.651 23.5136C119.708 23.0198 118.957 22.3577 118.395 21.5272C117.834 20.6968 117.531 19.7429 117.486 18.6655V12.9084C117.531 11.8311 117.834 10.8772 118.395 10.0467C118.979 9.19383 119.731 8.52049 120.651 8.02671C121.594 7.53292 122.649 7.28603 123.816 7.28603C125.32 7.28603 126.666 7.65637 127.856 8.39705C129.045 9.13772 129.977 10.1477 130.65 11.4271C131.346 12.7064 131.694 14.1541 131.694 15.7701C131.694 17.3637 131.346 18.8002 130.65 20.0795C129.977 21.3589 129.045 22.3689 127.856 23.1096C126.666 23.8502 125.32 24.2206 123.816 24.2206ZM123.042 20.1469C123.85 20.1469 124.568 19.9673 125.196 19.6082C125.825 19.2266 126.307 18.7104 126.644 18.0595C127.003 17.3862 127.183 16.6118 127.183 15.7365C127.183 14.8836 127.003 14.1317 126.644 13.4808C126.307 12.8074 125.825 12.2912 125.196 11.9321C124.568 11.5505 123.85 11.3598 123.042 11.3598C122.256 11.3598 121.549 11.5505 120.92 11.9321C120.292 12.2912 119.798 12.8074 119.439 13.4808C119.102 14.1317 118.934 14.8836 118.934 15.7365C118.934 16.6118 119.102 17.3862 119.439 18.0595C119.798 18.7104 120.281 19.2266 120.887 19.6082C121.515 19.9673 122.233 20.1469 123.042 20.1469ZM114.793 30.6847V7.6227H119.203V11.8984L118.463 15.8375L119.17 19.7765V30.6847H114.793ZM140.174 24.2542C139.254 24.2542 138.345 24.1308 137.447 23.8839C136.572 23.637 135.764 23.3003 135.023 22.8739C134.283 22.425 133.643 21.8863 133.104 21.2579L135.73 18.5982C136.291 19.2266 136.942 19.698 137.683 20.0122C138.424 20.3264 139.243 20.4835 140.141 20.4835C140.859 20.4835 141.398 20.3825 141.757 20.1805C142.138 19.9785 142.329 19.6755 142.329 19.2715C142.329 18.8226 142.127 18.4747 141.723 18.2278C141.342 17.9809 140.837 17.7789 140.208 17.6218C139.58 17.4423 138.917 17.2515 138.222 17.0495C137.548 16.825 136.897 16.5445 136.269 16.2078C135.641 15.8487 135.124 15.3661 134.72 14.7601C134.339 14.1317 134.148 13.3237 134.148 12.3361C134.148 11.3036 134.395 10.4058 134.889 9.64273C135.405 8.87961 136.134 8.28482 137.077 7.85837C138.02 7.43192 139.131 7.2187 140.41 7.2187C141.757 7.2187 142.969 7.45437 144.046 7.9257C145.146 8.39704 146.055 9.10405 146.773 10.0467L144.113 12.7064C143.62 12.1004 143.059 11.6628 142.43 11.3934C141.824 11.1241 141.162 10.9894 140.444 10.9894C139.793 10.9894 139.288 11.0904 138.929 11.2924C138.592 11.4944 138.424 11.775 138.424 12.1341C138.424 12.5381 138.614 12.8523 138.996 13.0768C139.4 13.3012 139.916 13.5032 140.545 13.6828C141.173 13.8399 141.824 14.0307 142.497 14.2551C143.193 14.4571 143.844 14.7489 144.45 15.1305C145.079 15.512 145.584 16.017 145.965 16.6455C146.369 17.2739 146.571 18.0819 146.571 19.0695C146.571 20.6631 145.999 21.9312 144.854 22.8739C143.709 23.7941 142.15 24.2542 140.174 24.2542ZM156.481 24.2206C155.044 24.2206 153.765 23.9176 152.643 23.3116C151.543 22.7056 150.679 21.8639 150.05 20.7865C149.422 19.7092 149.107 18.4635 149.107 17.0495V7.6227H153.552V16.9485C153.552 17.6218 153.664 18.2054 153.888 18.6992C154.113 19.1705 154.449 19.5296 154.898 19.7765C155.347 20.0234 155.875 20.1469 156.481 20.1469C157.401 20.1469 158.119 19.8663 158.635 19.3052C159.151 18.7441 159.41 17.9585 159.41 16.9485V7.6227H163.82V17.0495C163.82 18.486 163.506 19.7429 162.877 20.8202C162.271 21.8976 161.407 22.7392 160.285 23.3452C159.185 23.9288 157.917 24.2206 156.481 24.2206ZM167.332 23.8839V7.6227H171.743V23.8839H167.332ZM177.937 23.8839V14.2888C177.937 13.3461 177.634 12.6167 177.028 12.1004C176.445 11.5618 175.715 11.2924 174.84 11.2924C174.256 11.2924 173.729 11.4159 173.258 11.6628C172.786 11.8872 172.416 12.2239 172.147 12.6728C171.877 13.1217 171.743 13.6603 171.743 14.2888L170.026 13.4471C170.026 12.1902 170.295 11.1016 170.834 10.1814C171.395 9.26117 172.147 8.55416 173.089 8.06037C174.032 7.54414 175.098 7.28603 176.288 7.28603C177.41 7.28603 178.431 7.54414 179.351 8.06037C180.272 8.55416 181.001 9.26117 181.54 10.1814C182.078 11.0792 182.348 12.1678 182.348 13.4471V23.8839H177.937ZM188.542 23.8839V14.2888C188.542 13.3461 188.239 12.6167 187.633 12.1004C187.05 11.5618 186.32 11.2924 185.445 11.2924C184.884 11.2924 184.356 11.4159 183.863 11.6628C183.391 11.8872 183.021 12.2239 182.752 12.6728C182.482 13.1217 182.348 13.6603 182.348 14.2888L179.823 13.6828C179.912 12.381 180.26 11.2587 180.866 10.3161C181.472 9.35095 182.269 8.61027 183.257 8.09404C184.244 7.55537 185.344 7.28603 186.556 7.28603C187.768 7.28603 188.857 7.54414 189.822 8.06037C190.787 8.55416 191.55 9.27239 192.111 10.2151C192.672 11.1577 192.953 12.28 192.953 13.5818V23.8839H188.542Z" fill="black"/>
</svg>
